<svg xmlns="http://www.w3.org/2000/svg" viewBox="0 0 1712.88 522.9"><defs><style>.cls-1{fill:#6cc69d;}.cls-2{fill:#6c9;}.cls-3{fill:#9c9;}.cls-4{fill:none;}.cls-5{fill:#95d09f;}.cls-6{fill:#bbdda2;}.cls-7{fill:#fff8a7;}.cls-8{fill:#ffc693;}.cls-9{fill:#ffc697;}.cls-10,.cls-9{fill-rule:evenodd;}.cls-10{fill:#fff8ac;}</style></defs><g id="b"><path class="cls-1" d="M6483.52,7044.59l-21.66.14c-24.33,0-23.87,8-23.87,24.67v65s17.15-17.33,51.33-17c15.27.15,28.66,2.51,40.26,6.61,4-24.67,11.87-48.37,20.74-71.09C6531.38,7047.67,6509.29,7044.59,6483.52,7044.59Z" transform="translate(-6332.35 -6938.8)"/><path class="cls-2" d="M6503.69,7296.34l-15.37-.25c-39.84,0-81-21.49-81-87.35V6944.25h-75v418h77.82v-8.9h8c9.12,6.71,33.3,14.79,66.37,16.14,14.78,0,32.8-1,45.7-3.2a113.26,113.26,0,0,0,20.23-5c-7.58-22.68-16.9-45.38-20.4-69.76A86.94,86.94,0,0,1,6503.69,7296.34Z" transform="translate(-6332.35 -6938.8)"/><path class="cls-3" d="M6658,7159.73c-10.09-36.46-36.88-87-107.65-106.77-8.87,22.72-16.75,46.42-20.74,71.09,28.25,10,45.83,30.34,53.84,54.63,17.69,53.63-12,98.51-53.38,112.87,3.5,24.38,12.82,47.08,20.4,69.76a162.59,162.59,0,0,0,68-43.86c29-31.37,42-74.65,44.53-100.14A158.22,158.22,0,0,0,6658,7159.73Z" transform="translate(-6332.35 -6938.8)"/><path class="cls-4" d="M6529.22,7123.91s4-27.31,20.84-71" transform="translate(-6332.35 -6938.8)"/></g><g id="o"><path class="cls-5" d="M6865.67,7024.71c-93.8,0-169.84,75.59-169.84,171.22s76,173.15,169.84,173.15,169.84-77.52,169.84-173.15S6959.47,7024.71,6865.67,7024.71Zm1.85,262.48c-50.21,0-90.91-41.5-90.91-92.69s40.7-91.64,90.91-91.64,90.9,40.46,90.9,91.64S6917.72,7287.19,6867.52,7287.19Z" transform="translate(-6332.35 -6938.8)"/></g><g id="t"><path class="cls-6" d="M7095.76,6938.8V7036h-68.61v59.7h68.61v231.33s-1.66,41.46,38.35,41.46h63.63c4.17,0,5.81-5.81,5.81-5.81v-57.87s-12,.66-24.67.66c-10.88,0-9.85-9-9.85-9v-201h66.85v-59.29h-67V6938.8Z" transform="translate(-6332.35 -6938.8)"/></g><g id="d"><path class="cls-7" d="M7421.47,7045.16l-21.66-.15c-26.23,0-48.65,3.19-67.82,8.65,2.44,5.7,4.63,11.51,6.65,17.4a372.1,372.1,0,0,1,11.34,39.4c1.19,4.7,2.36,9.39,3.52,14-1.16-4.65-2.33-9.34-3.52-14,1.13,4.71,2.23,9.45,3.32,14.18,11.7-4.2,25.24-6.62,40.71-6.78,34.18-.33,51.33,17,51.33,17v-65C7445.34,7053.11,7445.8,7045.16,7421.47,7045.16Z" transform="translate(-6332.35 -6938.8)"/><path class="cls-6" d="M7338.64,7071.06c-2.1-5.84-4.43-11.61-7.07-17.27-69.69,20-96.19,70.15-106.21,106.36a158.22,158.22,0,0,0-4.95,57.58c2.5,25.5,15.51,68.78,44.53,100.15a162.49,162.49,0,0,0,67.26,43.62c7.82-22.33,16.42-44.72,20.3-69v-.81c-41-14.65-70.16-59.3-52.59-112.59,8-24.16,25.41-44.42,53.39-54.46-1.09-4.73-2.19-9.47-3.32-14.18C7346.64,7097.29,7343.08,7084,7338.64,7071.06Z" transform="translate(-6332.35 -6938.8)"/><path class="cls-7" d="M7476,6944.67v264.49c0,65.86-41.13,87.35-81,87.35l-15.37.26a86.88,86.88,0,0,1-27.14-5.08v.81c-3.88,24.28-12.48,46.67-20.3,69a115.07,115.07,0,0,0,20.92,5.22c12.9,2.19,30.92,3.2,45.7,3.2,33.07-1.35,57.25-9.42,66.37-16.13h8v8.89H7551v-418Z" transform="translate(-6332.35 -6938.8)"/></g><g id="iz"><path class="cls-7" d="M7805.13,7051.89H7594.51v208.19l75.34-.64V7124.36h68.79C7761.47,7100.71,7781.86,7074.61,7805.13,7051.89Z" transform="translate(-6332.35 -6938.8)"/><path class="cls-8" d="M8045.23,7051.89h-240.1c-23.27,22.72-43.66,48.82-66.49,72.47H7902.2L7741,7346.85v22.57s258.42-1.59,257.46,0,46.73-69.93,46.73-69.93H7880.9L8045.23,7063Z" transform="translate(-6332.35 -6938.8)"/><path class="cls-9" d="M7686,7383.76c4.13,37.05-17.51,63.1-58.09,77.94,24.85-32.25-21.18-67.18-23.72-100.66-5.95,10.16-9.33,23.7-10,41.82-30.43-47.74-5.2-125.76,61.76-114.54a56.64,56.64,0,0,1,17.47,5.86c24.42,13,39,41.45,39,68.58,0,17.3-7.39,32.73-17,45-1.28-12-4-21-9.46-24Z" transform="translate(-6332.35 -6938.8)"/><path class="cls-10" d="M7664.35,7330.25c6.9,17.82,5.95,46.6-13.37,56.69-.15-33.08-32.73-37.3-26.7-72.61-5.56,6.3-8.37,16.39-8.87,24.35-8.83-20.22-1.9-36.39,10.69-44.63,38.29-25,71.26,25.73,49.34,53.56-.67-6.22-8.28-15.82-11.09-17.36Z" transform="translate(-6332.35 -6938.8)"/></g></svg>